<?xml version="1.0" standalone="no"?><!DOCTYPE svg PUBLIC "-//W3C//DTD SVG 1.1//EN" "http://www.w3.org/Graphics/SVG/1.1/DTD/svg11.dtd"><svg t="1593063732372" class="icon" viewBox="0 0 1024 1024" version="1.1" xmlns="http://www.w3.org/2000/svg" p-id="1482" xmlns:xlink="http://www.w3.org/1999/xlink" width="200" height="200"><defs><style type="text/css"></style></defs><path d="M512 217.6l69.12 147.2c14.08 30.72 42.88 51.84 76.16 56.96l161.28 24.32-119.68 122.88c-22.4 23.04-32.64 55.04-27.52 86.4l27.52 168.96-138.24-76.16c-14.72-8.32-32-12.8-48.64-12.8s-33.92 4.48-48.64 12.8l-138.24 76.16 27.52-168.96c5.12-31.36-5.12-64-27.52-86.4L205.44 446.08l161.28-24.32c33.28-5.12 61.44-26.24 76.16-56.96L512 217.6m0-120.32c-11.52 0-23.04 5.76-28.8 17.92L380.16 335.36c-4.48 9.6-13.44 16-23.68 17.92l-233.6 35.84c-25.6 3.84-35.84 35.2-17.92 53.12l170.88 175.36c7.04 7.04 10.24 17.28 8.32 26.88l-40.32 245.76c-3.2 20.48 12.8 36.48 31.36 36.48 5.12 0 10.24-1.28 15.36-3.84l206.08-113.92c5.12-2.56 10.24-3.84 15.36-3.84s10.24 1.28 15.36 3.84l206.08 113.92a31.744 31.744 0 0 0 46.72-32.64l-40.32-245.76a30.08 30.08 0 0 1 8.32-26.88l170.88-175.36a31.36 31.36 0 0 0-17.92-53.12l-233.6-35.84a30.976 30.976 0 0 1-23.68-17.92L540.8 115.2A31.168 31.168 0 0 0 512 97.28z" fill="#ffffff" p-id="1483"></path></svg>