<?xml version="1.0" standalone="no"?><!DOCTYPE svg PUBLIC "-//W3C//DTD SVG 1.1//EN" "http://www.w3.org/Graphics/SVG/1.1/DTD/svg11.dtd"><svg t="1593905859135" class="icon" viewBox="0 0 1067 1024" version="1.1" xmlns="http://www.w3.org/2000/svg" p-id="9360" xmlns:xlink="http://www.w3.org/1999/xlink" width="208.3984375" height="200"><defs><style type="text/css"></style></defs><path d="M814.865261 769.618492l142.674667 148.942455c24.906214 24.741272 24.906214 68.28591 0 93.027182l6.267789-6.267789c-24.906214 24.906214-62.018121 24.906214-86.924335 0l-148.942455-155.210245c-74.388757 49.647485-167.58088 80.656546-260.608062 80.656546-254.505215 0.164942-465.465791-210.795635-465.465791-465.30085C1.867074 211.125518 206.724803 0 461.065076 0c254.505215 0 465.465791 211.125518 465.465792 465.465791 0 117.933395-43.379696 223.496154-111.665607 304.152701zM467.332865 837.904401C672.025653 837.904401 839.606533 670.323521 839.606533 465.465791 839.606533 260.608062 672.025653 93.027182 467.167923 93.027182 262.310194 93.027182 94.729313 260.608062 94.729313 465.465791 94.894255 670.323521 262.475135 837.904401 467.332865 837.904401z m0 0" p-id="9361" fill="#ffffff"></path></svg>