<?xml version="1.0" standalone="no"?><!DOCTYPE svg PUBLIC "-//W3C//DTD SVG 1.1//EN" "http://www.w3.org/Graphics/SVG/1.1/DTD/svg11.dtd"><svg t="1593077161869" class="icon" viewBox="0 0 1024 1024" version="1.1" xmlns="http://www.w3.org/2000/svg" p-id="15060" xmlns:xlink="http://www.w3.org/1999/xlink" width="200" height="200"><defs><style type="text/css"></style></defs><path d="M1.507 511.489c0 282.353 228.893 511.246 511.246 511.246s511.246-228.893 511.246-511.246-228.893-511.246-511.246-511.246-511.246 228.893-511.246 511.246zM518.58 143.847c0.723 0.104 1.448 0.188 2.167 0.331 0.685 0.135 1.35 0.325 2.022 0.495 0.622 0.155 1.245 0.292 1.859 0.479 0.661 0.2 1.297 0.448 1.943 0.679 0.613 0.218 1.231 0.421 1.834 0.671 0.602 0.249 1.182 0.544 1.771 0.822 0.622 0.292 1.247 0.569 1.858 0.896 0.564 0.303 1.098 0.646 1.646 0.973 0.597 0.356 1.202 0.694 1.785 1.086 0.605 0.405 1.175 0.855 1.755 1.29 0.487 0.364 0.986 0.701 1.458 1.090 1.043 0.855 2.045 1.756 2.998 2.71l173.509 173.509c15.971 15.971 15.971 41.869 0 57.84s-41.869 15.971-57.84 0l-103.689-103.689v555.664c0 22.589-18.311 40.9-40.9 40.9s-40.9-18.311-40.9-40.9v-555.669l-103.689 103.689c-15.971 15.971-41.869 15.971-57.84 0s-15.971-41.869 0-57.84l173.509-173.509c0.953-0.953 1.955-1.855 2.998-2.71 0.472-0.389 0.971-0.726 1.458-1.090 0.581-0.436 1.151-0.885 1.755-1.29 0.583-0.391 1.188-0.728 1.785-1.086 0.548-0.327 1.083-0.671 1.646-0.973 0.609-0.325 1.235-0.601 1.858-0.896 0.589-0.278 1.168-0.571 1.771-0.822 0.602-0.249 1.221-0.452 1.834-0.671 0.646-0.231 1.282-0.479 1.943-0.679 0.613-0.186 1.239-0.321 1.859-0.479 0.673-0.17 1.337-0.359 2.022-0.495 0.718-0.143 1.445-0.227 2.167-0.331 0.597-0.086 1.184-0.198 1.789-0.257 2.685-0.264 5.389-0.264 8.074 0 0.605 0.063 1.191 0.176 1.789 0.262z" p-id="15061" fill="#ffffff"></path></svg>